<?xml version="1.0" encoding="utf-8"?>
<!-- Generator: Adobe Illustrator 19.2.1, SVG Export Plug-In . SVG Version: 6.00 Build 0)  -->
<svg version="1.1" id="Layer_1" xmlns="http://www.w3.org/2000/svg" xmlns:xlink="http://www.w3.org/1999/xlink" x="0px" y="0px"
	 viewBox="0 0 95.7 57.4" style="enable-background:new 0 0 95.7 57.4;" xml:space="preserve">
<style type="text/css">
	.st0{fill:#c5d4ea;}
</style>
<path class="st0" d="M26.8,16.9c-5.8-0.1-11.1,2.3-14.9,6.2c-0.2-1.4-0.3-2.8-0.3-4.2c0.2-10.2,9.6-16.6,20-16.4L29.8,0
	C13.4-0.8,0.3,12,0,28c-0.2,15.9,9.3,29,25.7,29.3v-0.1c0.2,0,0.3,0.1,0.4,0.1c11.2,0.2,20.4-8.7,20.6-19.9
	C46.9,26.3,38,17.1,26.8,16.9"/>
<path class="st0" d="M75.9,16.9c-5.8-0.1-11.1,2.3-14.9,6.2c-0.2-1.4-0.3-2.8-0.3-4.2C60.9,8.8,70.2,2.4,80.6,2.5l-1.8-2.4
	C62.4-0.7,49.3,12.1,49.1,28c-0.3,16,9.2,29.1,25.6,29.4v-0.1c0.2,0,0.3,0.1,0.4,0.1c11.2,0.2,20.4-8.7,20.6-19.9
	C95.9,26.4,87,17.1,75.9,16.9"/>
</svg>
