<?xml version="1.0" encoding="utf-8"?>
<!-- Generator: Adobe Illustrator 19.2.1, SVG Export Plug-In . SVG Version: 6.00 Build 0)  -->
<svg version="1.1" id="Layer_1" xmlns="http://www.w3.org/2000/svg" xmlns:xlink="http://www.w3.org/1999/xlink" x="0px" y="0px"
	 viewBox="0 0 59 428.9" style="enable-background:new 0 0 59 428.9;" xml:space="preserve">
<style type="text/css">
	.st0{fill:#DFDFDF;}
</style>
<path class="st0" d="M47.3,208.3c-1.1,2.5-0.1,4.3,0.9,6.2c1.2,0.5,2.4,1,3.4,1.5c-1.6,6.2-3.3,12.3-4.8,17.9c1,2.6,1.6,4.3,2.3,6.1
	c-1.1,3.5-4.3,5.2-4.6,9.7c0.5,1.5,1.4-0.1,2.7-0.3c1.2,2.8,2.5,5.8,3.8,8.9c-1.2,5.3-0.9,10.7-2.9,15.7c3.8,0.1,0.5,3.6,1.9,5.2
	c1.2,1.4,1.6,3.9,2.2,5.5c-0.4,1.5-0.7,2.6-1,3.7c-0.6-0.1-1.2-0.4-2.2-0.6c-2.2,0.6-2,4.3-3.7,5.5c0.7,2.6,1.7,2.7,3.1,1.4
	c1.9,1.4,2.3,4,2.8,5.8c0.3,3.4-2.6,4.1-2.5,6.3c0.9,3.9,3-0.1,4.6,3.5c-0.3-0.9,0,0,0,0.1c-0.9,3.4-1.6,6.1-1.9,7
	c0.6,2.8,0.7,3.5,0.9,4c2.3,4.8,3,9.9,2.4,15.5c-0.5,4.4-0.3,8.8-1.8,13.4c0.6,1.7,1.4,3.7,1.6,4.3c0.5,6.5-3.9,5.8-5.1,8.4
	c-0.2,3.4,2.6,2.3,3,4.3c0.8,1.3-0.4,2.3-0.2,3.6c2.3,0.3,2.4,2.8,3.3,4.5c-0.8,1.2-1.4,2.1-2.1,3c1,2.7,1.1,6.5,4.3,6.7
	c-0.6,6.2,2.5,11.5,0.8,17c-1.6,5.4,2.4,11.4-2,17.4c-4.2,2.6-9.4,5.9-14.7,9.2c-2.3-3.7-5.8-3.7-8.5-5.5c-2,1.4-4.4,1.9-5.2,5.7
	c-3-4.1-7.2-3.2-10.8-5.4c-4.6-5.8,0.6-13.4-2.2-19.6c1.3-1,2.3-1.9,3.8-3.1c-2.9-5.9-3.9-13-8.2-18.2c0.8-1.8,2.8-1.9,4.3-3.2
	c0.7-2.2,0-3.6-3.5-7.5c3.8-7.4,1.4-15.9,2.1-24.6c-2.9-11.1-2.2-23.3-1.3-36.3c-0.9-2.5-2-5.4-3.2-8.4c1.9-2.7,3-5.8,3.4-9.3
	c-0.8-1.5-0.7-4.3-2.9-3.7c-0.6-4,1.6-5,3.8-6.6c-1-2.6-1.9-5.2-2.7-7.1c0.1-3.1,1.8-4.9,0.9-7.6c-0.5-0.4-1.1-0.8-1.5-1
	c1-3.5,1.9-7,2.9-10.4c-1.6-0.8-2.3-1.2-3.2-1.7c-0.8-3.5,1.2-6.2,1.6-9.5c-1-2.7-2.1-5.7-3.1-8.3c-0.2-4,2.9-5.4,3.2-9.2
	c-2.6-0.4-2.2-5-5.1-5.5c0.4-3.5,1.4-6.5,3.3-9c-1.2-0.5-2.4-1-3.6-1.7c0.5-6.7,1-13.3,1.5-20c1.8,0.1,3.6,0.4,5.5,0.5
	c0.3-1.2,0.7-2.5,1-3.7c-4.2-14.4-5.4-14.7-1.3-21.2c-0.1-2.2-1.6-2.2-2.5-3.1c-0.7-0.6-0.9-2.3-1.4-3.5c0.2-2.5,2.5-1.8,3.3-3.6
	c-0.2-1.9-2.6-1.2-2.7-3.6c-0.1-1.8-1.2-3.5-1.8-5.2c0.8-3.7,3.2-6.2,2.9-10.4c-0.2-3.4,0.3-6.6-0.1-10.1c-0.4-3.9,0.6-8.1,1.4-12
	c0.6-3.1,1.8-6.2,2.5-8.5c-0.8-2.1-1.2-3.2-1.6-4.3c-1.3-0.6-2.5-1.2-3.7-1.7c0-3,0.1-5.9,0.1-9.9c0.9-1.3,2.2-3.5,3.6-5.7
	c-0.2-2.7-0.9-4.9-3.2-5c-1.3-5.2,0-9.8,0.6-14.2c1.1-8.5,0.4-16.3-2.9-23.7c0.1-2.8,2-5.3,0.5-8.6c1,0.3,1.7,0.5,2.7,0.8
	c-1-4.3,1.2-7.7,1.6-11.5c-1.4-3.2-4,0.1-5.4-2.1c-1.1-1.7-2.4-2.8-4.4-1.8c-0.7-1.9-1.5-4-2.3-6.1c0.6-1.7,2.4-2.3,2.4-5.2
	c2.8,0.8,5.4,0,8.3-2.8c0.1-1,0.3-3,0.7-5.8c5.1,3.2,10.7,1.3,14.7,6.8c-0.1,0.3-0.3,0.8-0.5,1.4c-0.1,1.9,1.6,0.9,2,2.1
	c0.3,0.9,0.6,1.8,1.5,1.9c1.1-2.1-1-3.4-0.8-5.4C29.7,5,31.5,9.4,32.6,5c1.7,4.5,2.9,7.7,4.1,10.8c1.6-0.6,0.9-4.3,3.5-2.8
	c0.2,1.7-1.1,4.9,2.6,5.2c-3.3,5.5,0.6,11.6-1.3,17.2c-1.2,0.1-2.4-1.4-3.8,0.6c1.2,3.1,2.5,6.6,3.8,10.2c1.4,0.8,2.3-2.3,4.5-0.9
	c-3.2,2.5-5.1,5.8-5,10.3c1.6,3,2.8,0,4.6-0.3c1.2,0.6,2.8,1.5,4.5,2.6c0,1.3,0,3.1,0,5c-1.1,3-3.9-1.2-5.1,1.9c0,2.3,1.2,4.1,2,6.3
	c0.9-0.1,1.8-0.3,2.9-0.4c0,3.2,0,6.5,0,10.1c-0.6,1.3-2.7,1.5-1.9,4.3c-2.7-0.1-4.8,0.9-7-0.4c-0.9,1.3-0.5,4-3.2,3.9
	c5.7,2.7,3.1,9.4,5.2,13.4c2.2,1.3,3.5-2.1,5.6-1.9c2.6,0.9,4.9,2.7,3.4,6.7c-1.2,3.4,0.1,5.7,1.3,9c-0.6,1.5-1.4,3.5-2.8,6.8
	c0.1,0-1,0.8-2,1.5c-0.7,2.3,1.5,3.5,1.5,5.5c-2.8,7-0.3,14.8-2,22.1c1.1,3,2.2,5.9,3.4,8.9c-0.4,1.5-0.8,3.1-1.3,4.6
	c0,3.9,3.8,6.3,1.8,10.4c1.3,0.6,2.5,0.8,2.7,4.4c-0.6,1.9-1.8,5.5-2.8,9.3s-2.6,6.6-5.3,8.6C42.7,201.9,42.9,204,47.3,208.3z"/>
</svg>
